<svg version="1.0" xmlns="http://www.w3.org/2000/svg"
 width="512.000000pt" height="512.000000pt" viewBox="0 0 512.000000 512.000000"
 preserveAspectRatio="xMidYMid meet">

<g transform="translate(0.000000,512.000000) scale(0.100000,-0.100000)"
fill="#ffffff" stroke="none">
<path d="M2365 5113 c-27 -2 -99 -10 -160 -19 -725 -101 -1367 -507 -1780
-1124 -162 -242 -311 -598 -369 -880 -42 -205 -51 -302 -50 -540 0 -240 12
-356 60 -563 145 -636 532 -1192 1084 -1562 242 -162 598 -311 880 -369 205
-42 302 -51 540 -50 182 0 252 4 365 22 285 45 528 123 777 248 497 252 891
648 1137 1145 577 1161 203 2551 -879 3271 -146 97 -377 215 -534 273 -321
118 -710 172 -1071 148z m269 -1685 c18 -17 121 -255 362 -838 357 -866 352
-852 308 -901 -29 -33 -84 -43 -127 -25 -43 18 -50 30 -197 374 l-82 192 -169
0 -169 0 0 110 0 109 129 3 130 3 -128 307 c-70 169 -129 309 -131 312 -3 2
-131 -303 -285 -677 -167 -408 -290 -693 -305 -710 -32 -36 -96 -47 -133 -23
-32 22 -51 68 -43 103 4 16 156 388 337 828 362 879 350 855 434 855 31 0 51
-6 69 -22z"/>
</g>
</svg>
